<svg width="203" height="206" viewBox="0 0 203 206" fill="none" xmlns="http://www.w3.org/2000/svg">
<g clip-path="url(#clip0)">
<path d="M0.5 103C0.5 159.609 45.7191 205.5 101.5 205.5C157.281 205.5 202.5 159.609 202.5 103C202.5 46.3906 157.281 0.49999 101.5 0.49999C45.7191 0.49999 0.5 46.3906 0.5 103ZM169.882 141.406V170.221H78.5268V141.406H169.882V141.406ZM66.0389 155.807C66.0389 165.043 58.6615 172.52 49.5731 172.52C40.4929 172.518 33.1155 165.043 33.1155 155.807C33.1155 146.596 40.4929 139.109 49.5731 139.109C58.6636 139.109 66.0389 146.598 66.0389 155.807ZM169.882 33.4824V62.2747H125.455C114.86 62.2747 101.233 62.474 101.233 77.2528C101.233 92.2393 112.773 94.5441 124.688 94.5441H169.88V123.334L78.5268 123.334V95.6976H91.0105V95.3096C83.8273 91.4613 76.2557 82.0659 76.2557 68.0462C76.2557 38.868 95.1765 33.4824 119.774 33.4824H169.882Z" fill="white"/>
</g>
<defs>
<clipPath id="clip0">
<rect width="205" height="202" fill="white" transform="translate(0.5 205.5) rotate(-90)"/>
</clipPath>
</defs>
</svg>
