<svg width="30" height="30" viewBox="0 0 30 30" fill="none" xmlns="http://www.w3.org/2000/svg">
<path d="M15 0C6.71576 0 -1.90735e-06 6.71571 -1.90735e-06 15C-1.90735e-06 23.2843 6.71576 30 15 30C23.2843 30 30 23.2843 30 15C30 6.71571 23.2843 0 15 0ZM9.37961 25.1557H5.16278V11.5881H9.37961V25.1557ZM7.27214 9.7335C5.92053 9.7335 4.82634 8.63785 4.82634 7.28808C4.82663 5.93954 5.92053 4.84389 7.27214 4.84389C8.62009 4.84389 9.71576 5.93954 9.71576 7.28808C9.71576 8.63816 8.6198 9.7335 7.27214 9.7335ZM25.1733 25.1557H20.9598V18.5577C20.9598 16.9842 20.9306 14.9603 18.7679 14.9603C16.5747 14.9603 16.2374 16.6742 16.2374 18.4438V25.1554H12.0243V11.5881L16.0686 11.5881V13.4422H16.1254C16.6886 12.3753 18.0635 11.2508 20.1152 11.2508C24.3852 11.2508 25.1733 14.0609 25.1733 17.714V25.1557Z" fill="#5f7ecc"/>
</svg>
