<svg width="81" height="69" viewBox="0 0 81 69" fill="none" xmlns="http://www.w3.org/2000/svg">
<g clip-path="url(#clip0)">
<path fill-rule="evenodd" clip-rule="evenodd" d="M16.824 0.0100098C12.2022 0.0100098 8.78233 4.33476 8.93547 9.02483C9.08244 13.5307 8.89149 19.3665 7.51734 24.1256C6.13828 28.898 3.80763 31.9223 0 32.3105V36.6931C3.80763 37.0821 6.13828 40.1048 7.51718 44.8779C8.89149 49.637 9.08228 55.4728 8.93531 59.9787C8.78217 64.6681 12.202 68.9935 16.8246 68.9935H64.1822C68.804 68.9935 72.2232 64.6688 72.0701 59.9787C71.9231 55.4728 72.114 49.637 73.4882 44.8779C74.8673 40.1048 77.1922 37.0809 81 36.6931V32.3105C77.1924 31.9215 74.8674 28.8987 73.4882 24.1256C72.1139 19.3672 71.9231 13.5307 72.0701 9.02483C72.2232 4.33543 68.804 0.0100098 64.1822 0.0100098H16.8233H16.824ZM54.9153 42.4739C54.9153 48.9319 50.4095 52.8485 42.9321 52.8485H30.2033C29.8392 52.8485 29.49 52.6939 29.2326 52.4186C28.9751 52.1434 28.8305 51.7701 28.8305 51.3808V17.6229C28.8305 17.2336 28.9751 16.8603 29.2326 16.5851C29.49 16.3098 29.8392 16.1552 30.2033 16.1552H42.8596C49.0945 16.1552 53.1865 19.7658 53.1865 25.3094C53.1865 29.2003 50.4337 32.6836 46.9268 33.2938V33.4968C51.7008 34.0566 54.9153 37.5915 54.9153 42.4739V42.4739ZM41.5441 20.8079H34.2864V31.7677H40.3992C45.1248 31.7677 47.7304 29.7334 47.7304 26.0972C47.7299 22.6895 45.4897 20.8079 41.5441 20.8079ZM34.2864 36.1163V48.1943H41.8112C46.7313 48.1943 49.3374 46.0837 49.3374 42.1172C49.3374 38.1507 46.6582 36.1156 41.4948 36.1156H34.2864V36.1163Z" fill="#7952B3"/>
</g>
<defs>
<clipPath id="clip0">
<rect width="81" height="69" fill="white"/>
</clipPath>
</defs>
</svg>
