<svg width="75" height="64" viewBox="0 0 75 64" fill="none" xmlns="http://www.w3.org/2000/svg">
<path fill-rule="evenodd" clip-rule="evenodd" d="M37.5 0.756104C23.7346 0.756104 12.5713 10.2796 12.5713 22.0286C12.5713 31.4271 19.7139 39.4011 29.6191 42.2136C30.8648 42.4106 31.3225 41.7521 31.3225 41.1901C31.3225 40.6831 31.299 39.0071 31.2885 37.2301C24.3527 38.5166 22.8896 34.7201 22.8896 34.7201C21.7559 32.2611 20.1217 31.6071 20.1217 31.6071C17.86 30.2871 20.2916 30.3141 20.2916 30.3141C22.7953 30.4641 24.1137 32.5066 24.1137 32.5066C26.3367 35.7586 29.9455 34.8181 31.3676 34.2746C31.592 32.8996 32.2377 31.9606 32.9508 31.4296C27.4137 30.8921 21.593 29.0676 21.593 20.9166C21.593 18.5941 22.5668 16.6966 24.1617 15.2066C23.9027 14.6706 23.0496 12.5066 24.4031 9.5766C24.4031 9.5766 26.4961 9.00561 31.2586 11.7581C33.2479 11.2866 35.3807 11.0501 37.4988 11.0421C39.6176 11.0506 41.7516 11.2871 43.7437 11.7581C48.5016 9.00611 50.5922 9.5771 50.5922 9.5771C51.9492 12.5071 51.0961 14.6706 50.8371 15.2071C52.4355 16.6961 53.4023 18.5941 53.4023 20.9171C53.4023 29.0871 47.5705 30.8861 42.0193 31.4121C42.9135 32.0721 43.7103 33.3671 43.7103 35.3521C43.7103 38.1981 43.6822 40.4886 43.6822 41.1891C43.6822 41.7541 44.1311 42.4181 45.3943 42.2091C55.2943 39.3931 62.4275 31.4221 62.4275 22.0266C62.4287 10.2801 51.2678 0.756104 37.5 0.756104Z" fill="#181616"/>
<path d="M22.0136 31.2982C21.958 31.4042 21.7629 31.4357 21.5859 31.3632C21.4043 31.2932 21.3035 31.1497 21.3621 31.0432C21.4148 30.9352 21.6105 30.9047 21.7916 30.9772C21.9732 31.0472 22.0763 31.1922 22.0142 31.2982H22.0136ZM23.0232 32.2602C22.9043 32.3537 22.6716 32.3102 22.5134 32.1612C22.3506 32.0127 22.3201 31.8142 22.4408 31.7192C22.5627 31.6252 22.7883 31.6692 22.9506 31.8177C23.1146 31.9677 23.1468 32.1642 23.0226 32.2597L23.0232 32.2602ZM24.0058 33.4842C23.8535 33.5752 23.6033 33.4902 23.4492 33.3007C23.2957 33.1122 23.2957 32.8857 23.4521 32.7942C23.6068 32.7032 23.8529 32.7852 24.0088 32.9727C24.1623 33.1652 24.1623 33.3927 24.0058 33.4847V33.4842ZM25.3523 34.6682C25.2158 34.7967 24.9246 34.7622 24.7119 34.5867C24.4939 34.4152 24.4336 34.1717 24.5701 34.0432C24.709 33.9147 25.0013 33.9507 25.2158 34.1247C25.4326 34.2957 25.4982 34.5397 25.3523 34.6677V34.6682ZM27.2109 35.3552C27.15 35.5222 26.8699 35.5977 26.5875 35.5272C26.305 35.4542 26.1211 35.2592 26.1773 35.0912C26.2359 34.9232 26.5183 34.8447 26.8025 34.9202C27.0838 34.9922 27.2683 35.1852 27.2103 35.3552H27.2109ZM29.25 35.4827C29.2576 35.6577 29.0179 35.8037 28.7215 35.8067C28.4238 35.8127 28.1824 35.6707 28.1789 35.4977C28.1789 35.3207 28.4133 35.1767 28.7109 35.1727C29.0074 35.1677 29.25 35.3087 29.25 35.4827ZM31.1484 35.2072C31.1836 35.3782 30.9785 35.5542 30.6838 35.6007C30.3943 35.6467 30.1271 35.5407 30.0896 35.3707C30.0545 35.1957 30.2636 35.0207 30.5525 34.9747C30.8472 34.9307 31.1109 35.0337 31.1484 35.2077V35.2072Z" fill="#181616"/>
<path d="M14.5635 54.151H8.29396C8.21626 54.151 8.14174 54.1773 8.0868 54.2242C8.03186 54.2711 8.00099 54.3347 8.00099 54.401V57.017C8.00099 57.0833 8.03186 57.1469 8.0868 57.1938C8.14174 57.2407 8.21626 57.267 8.29396 57.267H10.7391V60.517C10.7391 60.517 10.1901 60.677 8.67072 60.677C6.88009 60.677 4.37755 60.119 4.37755 55.423C4.37755 50.7265 6.9838 50.108 9.43068 50.108C11.5483 50.108 12.46 50.426 13.0412 50.5795C13.2229 50.6265 13.3928 50.4715 13.3928 50.3335L14.0918 47.806C14.0929 47.7682 14.0833 47.7306 14.0637 47.6967C14.0441 47.6627 14.0151 47.6333 13.9793 47.611C13.7432 47.467 12.3053 46.781 8.67189 46.781C4.48595 46.781 0.1922 48.3 0.1922 55.606C0.1922 62.911 5.10822 63.9995 9.25079 63.9995C12.6809 63.9995 14.7615 62.7485 14.7615 62.7485C14.8471 62.7085 14.8565 62.606 14.8565 62.5585V54.4005C14.8565 54.3342 14.8256 54.2706 14.7707 54.2237C14.7157 54.1768 14.6412 54.1505 14.5635 54.1505V54.151ZM46.5856 47.405H43.0547C43.0162 47.4051 42.9781 47.4118 42.9425 47.4245C42.907 47.4372 42.8748 47.4558 42.8477 47.4791C42.8206 47.5025 42.7991 47.5302 42.7846 47.5606C42.77 47.591 42.7627 47.6236 42.7629 47.6565L42.7641 53.4785H37.261V47.6565C37.2612 47.6237 37.2538 47.5911 37.2393 47.5607C37.2248 47.5303 37.2034 47.5026 37.1764 47.4793C37.1493 47.4559 37.1172 47.4374 37.0817 47.4246C37.0463 47.4119 37.0082 47.4052 36.9697 47.405H33.4395C33.4009 47.4051 33.3628 47.4118 33.3273 47.4245C33.2918 47.4372 33.2595 47.4558 33.2324 47.4791C33.2053 47.5025 33.1839 47.5302 33.1694 47.5606C33.1548 47.591 33.1474 47.6236 33.1477 47.6565V63.4215C33.1477 63.56 33.2789 63.673 33.4395 63.673H36.9697C37.0083 63.6728 37.0464 63.6661 37.0819 63.6534C37.1174 63.6406 37.1495 63.6219 37.1766 63.5985C37.2036 63.5751 37.225 63.5474 37.2395 63.5169C37.254 63.4865 37.2613 63.4539 37.261 63.421V56.678H42.7641L42.7547 63.421C42.7547 63.56 42.886 63.673 43.0477 63.673H46.5856C46.6241 63.6728 46.6622 63.6661 46.6977 63.6534C46.7332 63.6406 46.7654 63.6219 46.7924 63.5985C46.8195 63.5751 46.8408 63.5474 46.8553 63.5169C46.8698 63.4865 46.8771 63.4539 46.8768 63.421V47.656C46.8768 47.517 46.7479 47.405 46.5856 47.405V47.405ZM18.9492 47.7635C17.693 47.7635 16.6735 48.64 16.6735 49.725C16.6735 50.8085 17.693 51.6875 18.9492 51.6875C20.2067 51.6875 21.2256 50.8085 21.2256 49.725C21.2256 48.64 20.2061 47.7635 18.9492 47.7635ZM20.6813 52.5675H17.1621C17.0004 52.5675 16.8563 52.7095 16.8563 52.8475V63.2735C16.8563 63.58 17.0801 63.671 17.3695 63.671H20.5395C20.8881 63.671 20.9731 63.525 20.9731 63.2685V60.0955V52.819C20.9732 52.7862 20.9658 52.7536 20.9512 52.7233C20.9366 52.6929 20.9152 52.6652 20.8881 52.6419C20.861 52.6186 20.8288 52.6001 20.7933 52.5874C20.7578 52.5747 20.7197 52.5681 20.6813 52.568V52.5675ZM60.2942 52.591H56.7902C56.7518 52.5913 56.7137 52.598 56.6783 52.6108C56.6429 52.6236 56.6108 52.6422 56.5838 52.6656C56.5568 52.689 56.5355 52.7167 56.521 52.7472C56.5066 52.7776 56.4993 52.8102 56.4996 52.843V60.573C56.4996 60.573 55.609 61.128 54.3463 61.128C53.0836 61.128 52.7485 60.6395 52.7485 59.584V52.843C52.7488 52.8101 52.7415 52.7775 52.727 52.7471C52.7125 52.7166 52.6911 52.6889 52.6641 52.6655C52.637 52.6421 52.6049 52.6234 52.5694 52.6107C52.5339 52.5979 52.4958 52.5912 52.4572 52.591H48.9018C48.824 52.5915 48.7496 52.6183 48.6949 52.6656C48.6402 52.7128 48.6097 52.7766 48.61 52.843V60.094C48.61 63.229 50.6578 63.996 53.4744 63.996C55.7854 63.996 57.6486 62.906 57.6486 62.906C57.6486 62.906 57.7365 63.481 57.7776 63.5485C57.8186 63.6165 57.9223 63.685 58.0354 63.685L60.2971 63.6765C60.3357 63.6764 60.3739 63.6697 60.4096 63.657C60.4452 63.6443 60.4775 63.6257 60.5047 63.6023C60.5319 63.5789 60.5535 63.5511 60.5681 63.5206C60.5828 63.4901 60.5902 63.4575 60.5901 63.4245L60.5883 52.8415C60.588 52.7752 60.5571 52.7116 60.5022 52.6647C60.4474 52.6177 60.373 52.591 60.2953 52.5905L60.2942 52.591ZM69.8696 52.237C67.8797 52.237 66.5262 52.9945 66.5262 52.9945V47.656C66.5264 47.6232 66.5191 47.5906 66.5046 47.5602C66.4901 47.5298 66.4687 47.5021 66.4416 47.4788C66.4146 47.4554 66.3824 47.4369 66.347 47.4241C66.3115 47.4114 66.2735 47.4047 66.235 47.4045H62.6953C62.6567 47.4045 62.6185 47.411 62.5828 47.4237C62.5471 47.4363 62.5148 47.4549 62.4875 47.4783C62.4603 47.5016 62.4388 47.5294 62.4242 47.5599C62.4095 47.5904 62.4021 47.623 62.4024 47.656V63.421C62.4021 63.454 62.4095 63.4866 62.4242 63.5171C62.4388 63.5476 62.4603 63.5754 62.4875 63.5987C62.5148 63.6221 62.5471 63.6407 62.5828 63.6533C62.6185 63.666 62.6567 63.6725 62.6953 63.6725H65.1516C65.2629 63.6725 65.3461 63.624 65.4076 63.5385C65.468 63.4535 65.5565 62.8115 65.5565 62.8115C65.5565 62.8115 67.0037 63.9815 69.7447 63.9815C72.9615 63.9815 74.8072 62.5895 74.8072 57.7305C74.8072 52.8715 71.86 52.2365 69.869 52.2365L69.8696 52.237ZM68.4867 61.119C67.2721 61.0875 66.4477 60.617 66.4477 60.617V55.6245C66.4477 55.6245 67.261 55.1995 68.2582 55.1225C69.5197 55.026 70.7356 55.3515 70.7356 57.9195C70.7356 60.628 70.1877 61.1625 68.4873 61.1185L68.4867 61.119ZM31.169 61.06C31.0149 61.06 30.6199 61.1135 30.2139 61.1135C28.9131 61.1135 28.4719 60.5975 28.4719 59.9295V55.4965H31.1203C31.159 55.4965 31.1973 55.49 31.233 55.4773C31.2687 55.4646 31.3011 55.446 31.3283 55.4226C31.3556 55.3991 31.3771 55.3714 31.3917 55.3408C31.4063 55.3102 31.4136 55.2775 31.4133 55.2445V52.8165C31.4135 52.7836 31.406 52.751 31.3913 52.7205C31.3767 52.6901 31.3551 52.6624 31.3279 52.6391C31.3007 52.6158 31.2683 52.5973 31.2327 52.5846C31.1971 52.572 31.1589 52.5655 31.1203 52.5655H28.4719L28.4678 49.5805C28.4678 49.467 28.3998 49.4105 28.2463 49.4105H24.6369C24.4975 49.4105 24.4219 49.4635 24.4219 49.578V52.663C24.4219 52.663 22.6131 53.0355 22.4912 53.0655C22.4304 53.0806 22.3769 53.1122 22.3389 53.1555C22.3008 53.1988 22.2803 53.2514 22.2803 53.3055V55.244C22.2801 55.2768 22.2874 55.3094 22.3019 55.3398C22.3164 55.3702 22.3378 55.3979 22.3649 55.4212C22.3919 55.4446 22.4241 55.4632 22.4595 55.4759C22.495 55.4886 22.533 55.4953 22.5715 55.4955H24.4219V60.1595C24.4219 63.6245 27.2695 63.9645 29.1914 63.9645C30.0686 63.9645 31.1192 63.7245 31.2926 63.6695C31.3981 63.636 31.4584 63.5435 31.4584 63.443L31.4608 61.3105C31.4596 61.2444 31.4283 61.1813 31.3737 61.1345C31.319 61.0877 31.2452 61.0608 31.1678 61.0595L31.169 61.06Z" fill="#100E0F"/>
</svg>
