<svg width="149" height="79" viewBox="0 0 149 79" fill="none" xmlns="http://www.w3.org/2000/svg">
<path d="M95.9808 17.2128C95.9378 17.0905 95.872 16.9786 95.7873 16.8837C95.7027 16.7889 95.601 16.7131 95.4882 16.6608C95.3753 16.6084 95.2538 16.5807 95.1306 16.5792C95.0075 16.5777 94.8854 16.6024 94.7714 16.6519C94.6068 16.7238 94.4661 16.8461 94.3674 17.0033C94.2688 17.1605 94.2166 17.3453 94.2176 17.5341C94.2176 17.6394 94.2425 17.775 94.2673 17.8817C95.1565 20.4026 95.6091 23.0731 95.6034 25.7646C95.6034 37.1208 87.6157 46.5021 77.2838 47.9438V37.4961C77.9066 37.3677 78.5212 37.1979 79.1239 36.9878V45.7529C87.6169 43.562 93.9159 35.4381 93.9159 25.7659C93.9159 18.016 89.8594 11.2562 83.887 7.75389C83.7786 7.68986 83.659 7.65009 83.5356 7.63706C83.4121 7.62402 83.2875 7.63799 83.1694 7.6781C83.0512 7.71822 82.9421 7.78362 82.8487 7.87026C82.7554 7.9569 82.6798 8.06294 82.6267 8.18181C82.5522 8.31347 82.5274 8.47542 82.5274 8.60972C82.5288 8.78438 82.574 8.95549 82.6582 9.10561C82.7424 9.25573 82.8626 9.37948 83.0066 9.46424C88.424 12.644 92.0783 18.7639 92.0783 25.7646C92.0783 33.6475 87.4667 40.3796 80.9405 43.1051V35.3288C82.0741 34.9549 82.9309 33.8318 82.9309 32.498C82.9309 31.4025 82.402 30.4401 81.5452 29.9331C82.2008 23.226 85.0989 24.9891 85.0989 22.8521V21.5934C85.0989 18.3873 78.0934 7.93954 74.8179 7.69859H74.2132C70.9376 7.93954 63.9322 18.3873 63.9322 21.5934V22.8495C63.9322 24.9877 66.8302 23.2234 67.4858 29.9305C66.6166 30.4387 66.1001 31.3999 66.1001 32.4954C66.1001 33.8318 66.9693 34.9536 68.0905 35.3262V43.1024C61.5643 40.3769 56.9528 33.6435 56.9528 25.7619C56.9528 18.7336 60.607 12.6414 66.0244 9.46161C66.4527 9.22066 66.6042 8.67161 66.4018 8.17917C66.2504 7.83157 65.9226 7.64461 65.5699 7.64461C65.4184 7.64461 65.267 7.67094 65.1415 7.77627C59.1443 11.2786 55.1126 18.0107 55.1126 25.7883C55.1126 35.4618 61.4128 43.5843 69.9046 45.7753V36.9984C70.5093 37.2117 71.114 37.3986 71.7447 37.5066V47.9544C61.3892 46.5113 53.4252 37.1314 53.4252 25.7751C53.4256 23.0842 53.878 20.4149 54.7612 17.8922C54.9375 17.4116 54.7115 16.8494 54.2571 16.6625C54.1458 16.611 54.0258 16.5841 53.9045 16.5835C53.7149 16.5822 53.5296 16.6432 53.374 16.758C53.2184 16.8728 53.1001 17.0358 53.0353 17.2247C52.104 19.8975 51.5739 22.781 51.5739 25.7751C51.5739 38.8694 61.3259 49.5567 73.5725 50.065V37.762C73.9003 37.7884 74.5037 37.7884 74.5037 37.7884C74.5037 37.7884 75.1084 37.7884 75.435 37.762V50.0808C87.6815 49.5725 97.4336 38.8838 97.4336 25.7909C97.4182 22.8634 96.9238 19.961 95.9721 17.2128H95.9808ZM78.7217 31.0813C79.0743 30.7073 79.5287 30.494 80.0577 30.494C80.5866 30.494 81.0411 30.7073 81.3937 31.0813C81.7464 31.4552 81.9475 31.9371 81.9475 32.498C81.9475 33.0589 81.7464 33.5408 81.3937 33.9147C81.0411 34.2887 80.5866 34.502 80.0577 34.502C79.5287 34.502 79.0743 34.2887 78.7217 33.9147C78.369 33.5408 78.1679 33.0589 78.1679 32.498C78.1915 31.9718 78.3873 31.4709 78.7217 31.0813V31.0813ZM70.2783 33.9121C69.9257 34.286 69.4712 34.4993 68.9423 34.4993C68.4133 34.4993 67.9589 34.286 67.6063 33.9121C67.2536 33.5382 67.0525 33.0563 67.0525 32.4954C67.0525 31.9345 67.2536 31.4526 67.6063 31.0786C67.9589 30.7047 68.4133 30.4914 68.9423 30.4914C69.4712 30.4914 69.9257 30.7047 70.2783 31.0786C70.6309 31.4526 70.8321 31.9345 70.8321 32.4954C70.8295 33.0263 70.6307 33.535 70.2783 33.9121V33.9121Z" fill="#6D64C2"/>
<path d="M40.384 61.0749C40.0922 60.6114 39.8004 60.2006 39.3658 59.8899C38.6219 59.2744 37.7018 58.9474 36.7583 58.9629C34.573 58.9629 32.3902 60.7141 32.3902 63.8517C32.3902 67.0933 34.6227 68.7918 36.7583 68.7918C37.8262 68.7918 38.7475 68.4824 39.4279 67.9176C40.1555 67.3514 40.641 66.5798 40.8347 65.7556H35.8221V63.4383H44.0233C44.073 64.3652 43.9265 65.857 43.4397 67.0407C42.1782 70.0256 39.2677 71.3633 36.8403 71.3633C32.8123 71.3633 29.7069 68.0716 29.7069 63.8504C29.7069 59.5791 32.9104 56.4402 36.8887 56.4402C39.9457 56.4402 42.6153 58.4981 43.5378 61.1236H40.384V61.0749ZM45.9641 56.7009H48.3418V58.9656H45.9641V56.7009ZM45.9641 60.406H48.3418V71.071H45.9641V60.406ZM51.5453 62.3612H49.8939V60.406H51.5453V56.7009H53.9231V60.406H55.6217V62.3612H53.9231V71.0578H51.5453V62.3612ZM57.6606 56.6996H60.3922V63.3382L64.8573 56.6996H67.7205L62.8184 63.853L68.2048 71.0578H64.856L60.3426 64.6246V71.0578H57.6134V56.7009L57.6606 56.6996ZM69.5011 60.406H71.782V61.7951C72.2191 60.8681 73.0436 60.0834 74.5485 60.0439V62.6167H74.4516C72.753 62.6167 71.9285 63.4396 71.9285 65.2921V71.0552H69.5508V60.3902L69.5011 60.406ZM85.9532 71.071H83.5642V69.5265C82.9334 70.7616 81.5751 71.3791 80.167 71.3791C76.9635 71.3791 75.0712 68.7036 75.0712 65.7174C75.0712 62.3731 77.3521 60.0558 80.167 60.0558C82.0109 60.0558 83.1271 61.0854 83.5642 61.9597V60.4152H85.942L85.9532 71.071ZM77.4602 65.7701C77.4602 67.1078 78.3343 69.0117 80.5172 69.0117C81.8755 69.0117 82.7497 68.2915 83.1867 67.3001C83.4289 66.8366 83.5269 66.3218 83.5754 65.8083C83.5775 65.2949 83.4781 64.7867 83.2836 64.3165C82.8465 63.2869 81.9252 62.4126 80.4687 62.4126C78.5764 62.4126 77.4602 64.1243 77.4602 65.7569V65.7701ZM88.5731 56.7009H90.9509V64.4719L94.3965 60.406H97.2598L93.0878 65.0894L97.2598 71.0591H94.4933L90.89 65.7582V71.0591H88.5122V56.7009H88.5731ZM101.481 68.4851C102.743 69.5647 104.345 69.1039 105.269 68.0729C106.093 67.146 106.24 66.169 105.948 65.2421L107.646 63.3382C108.143 64.5232 108.23 65.7056 108.083 66.7352C107.938 67.8149 107.453 68.7932 106.725 69.566C104.589 71.9334 101.241 71.8307 99.203 69.7714C97.117 67.7135 96.8252 64.1624 98.9112 61.7951C99.9294 60.6627 101.241 60.0439 102.599 60.0439C104.346 60.0439 105.802 60.8155 106.967 62.2559L101.481 68.4851ZM104.052 62.7734C103.276 62.1545 101.625 61.9504 100.461 63.3395C99.2477 64.7286 99.4898 66.3758 100.169 67.1974L104.052 62.7734ZM110.074 60.406H112.306V61.8464C112.743 61.0235 113.665 60.0953 115.41 60.0953C118.664 60.0953 119.293 62.7707 119.293 64.6773V71.1105H116.915V65.3461C116.915 63.7503 116.419 62.5153 114.73 62.5153C113.041 62.5153 112.449 63.7503 112.449 65.2408V71.1079H110.074V60.406Z" fill="#21609B"/>
</svg>
