<svg width="113" height="102" viewBox="0 0 113 102" fill="none" xmlns="http://www.w3.org/2000/svg">
<path d="M56.2952 76.8028C52.1145 76.8189 47.9458 76.3986 43.8722 75.5501C42.6613 75.3035 41.4736 74.9721 40.3198 74.5588L43.1907 78.9862L44.3136 92.82C44.3136 94.3723 49.7729 95.6281 56.5035 95.6281C63.2341 95.6281 68.6934 94.3723 68.6934 92.82L69.5833 78.8364L72.2988 74.546C71.1354 74.9659 69.9369 75.3017 68.7146 75.5501C64.6421 76.3983 60.4746 76.8187 56.2952 76.8028V76.8028ZM72.3906 31.7889C67.1197 32.3805 61.8113 32.6585 56.5 32.6208C51.1886 32.6585 45.8803 32.3805 40.6094 31.7889C38.9352 31.6056 37.2813 31.2942 35.6656 30.8581C35.2449 30.7403 34.837 30.5877 34.4473 30.4023L37.0781 52.2749C37.2005 51.8988 37.3371 51.5227 37.4877 51.1466C37.7929 50.3777 38.1466 49.6253 38.5471 48.893C38.943 48.1758 39.3864 47.4807 39.8749 46.8116C40.3357 46.1785 40.8454 45.5757 41.4004 45.0075C41.9031 44.4887 42.4588 44.0138 43.06 43.589C43.5874 43.2152 44.1652 42.9035 44.7798 42.6614C45.3231 42.4511 45.9082 42.3426 46.4995 42.3427C47.1696 42.3464 47.8261 42.5138 48.3993 42.8272C49.0956 43.2258 49.6824 43.7621 50.1155 44.3955C50.2314 44.5421 50.3108 44.7095 50.3485 44.8863C50.3803 45.0409 50.3968 45.1977 50.398 45.3549C50.4162 45.6487 50.3186 45.9389 50.1225 46.1741C50.0467 46.2662 49.9482 46.3412 49.8349 46.3932C49.7215 46.4451 49.5964 46.4727 49.4693 46.4737C49.3424 46.4681 49.2185 46.4365 49.1072 46.3812C48.9958 46.326 48.8999 46.2486 48.8266 46.1549C48.5746 45.8601 48.3524 45.5454 48.1627 45.2146C47.9826 44.8979 47.7226 44.6238 47.4035 44.4146C47.1378 44.252 46.824 44.1654 46.503 44.166C45.9123 44.1944 45.347 44.392 44.8892 44.7301C44.2554 45.1605 43.6846 45.6617 43.1907 46.2219C42.5918 46.8901 42.0522 47.6 41.5769 48.3448C41.0671 49.1335 40.6119 49.95 40.2138 50.7896C39.8318 51.5896 39.5167 52.4142 39.271 53.2567C39.0519 53.9682 38.9333 54.7018 38.9179 55.4401C38.9188 55.6619 38.9353 55.8833 38.9673 56.1031C38.9953 56.3162 39.0571 56.5244 39.1509 56.7215C39.2289 56.8956 39.3496 57.0515 39.5041 57.1773C39.6687 57.2995 39.8773 57.363 40.0903 57.3558C40.41 57.3424 40.7214 57.2593 40.9978 57.1136C41.3722 56.9314 41.7269 56.718 42.0572 56.4761C42.4401 56.1982 42.8056 55.9013 43.1519 55.5868C43.5191 55.2574 43.8605 54.9227 44.1759 54.5827C44.4914 54.2427 44.7715 53.9176 45.0164 53.6073C45.2245 53.3506 45.4088 53.0787 45.5672 52.7945L46.5701 50.0851C46.6535 49.833 46.8212 49.6103 47.0504 49.4476C47.2278 49.3303 47.4413 49.2656 47.6613 49.2628C47.7633 49.2629 47.8647 49.2779 47.9614 49.3074C48.066 49.3386 48.1616 49.3907 48.241 49.4596C48.3204 49.5286 48.3818 49.6127 48.4205 49.7058C48.4699 49.8217 48.4939 49.9451 48.4911 50.0692C48.4928 50.418 48.4561 50.7661 48.3816 51.1083C48.3111 51.4318 48.2191 51.7511 48.1062 52.0646C47.9955 52.3727 47.872 52.6819 47.7354 52.9921C47.5989 53.3024 47.4659 53.6275 47.3364 53.9675C47.2729 54.0843 47.2209 54.2059 47.181 54.3309C47.1057 54.5434 47.0139 54.7994 46.9056 55.0991C46.7973 55.3987 46.6796 55.743 46.5524 56.1318L46.164 57.2953C46.0298 57.6905 45.9027 58.0783 45.7826 58.4587C45.6626 58.8391 45.5531 59.1833 45.4542 59.4914L45.2106 60.2628C45.147 60.47 45.1046 60.5816 45.0905 60.6326C45.0467 60.773 44.9888 60.9096 44.9175 61.0406C44.8392 61.1904 44.7458 61.3333 44.6385 61.4677C44.5386 61.5889 44.4196 61.6962 44.2854 61.7865C44.1725 61.8698 44.0321 61.9169 43.8864 61.9203C43.7901 61.9276 43.6934 61.9124 43.6055 61.8761C43.5177 61.8398 43.4417 61.7837 43.3849 61.7131C43.2576 61.4766 43.2039 61.2133 43.2295 60.9513V60.7888C43.2262 60.7314 43.2262 60.674 43.2295 60.6166C43.2753 60.3811 43.3438 60.1497 43.4344 59.9249C43.5356 59.5871 43.6533 59.2046 43.7875 58.7775C43.9217 58.3503 44.0723 57.9083 44.2395 57.4514C44.4019 56.9946 44.5479 56.5855 44.6774 56.2243C44.296 56.6089 43.8828 56.9914 43.4379 57.3718C43.0069 57.741 42.5492 58.0839 42.0678 58.3981C41.6258 58.6879 41.1526 58.9368 40.6553 59.1408C40.2262 59.323 39.7592 59.4208 39.2851 59.4277C38.8295 59.4388 38.3795 59.3351 37.9856 59.1281C37.9185 59.093 37.8585 59.0516 37.7985 59.0101L39.2639 72.8821C39.6453 73.7459 46.8279 75.8656 56.3022 75.8656C65.7766 75.8656 72.9662 73.7428 73.3405 72.8789L75.4593 56.3868L74.9543 56.8076C74.4094 57.269 73.839 57.7052 73.2452 58.1145C72.7616 58.4522 72.2353 58.7368 71.6773 58.9623C71.16 59.1634 70.602 59.2654 70.0388 59.2619C69.5884 59.2889 69.1412 59.1765 68.7711 58.9432C68.6242 58.8379 68.5071 58.7027 68.4291 58.5487C68.3512 58.3947 68.3147 58.2262 68.3226 58.0571V57.971C68.3195 57.9381 68.3195 57.9051 68.3226 57.8722C68.3727 57.5886 68.4869 57.3174 68.6581 57.0753C68.8719 56.7512 69.1078 56.4392 69.3643 56.1414C69.6374 55.8184 69.9281 55.4911 70.2365 55.1596C70.5449 54.8281 70.831 54.5147 71.0946 54.2193C71.3288 53.9595 71.5469 53.6881 71.7479 53.4065C71.8916 53.2311 71.9806 53.0242 72.0057 52.8073C72.0075 52.7655 71.9985 52.7239 71.9796 52.6857C71.9606 52.6475 71.932 52.6139 71.8962 52.5873C71.7915 52.5263 71.6673 52.4983 71.5431 52.5076C71.2334 52.5122 70.9289 52.5809 70.6532 52.7084C70.3271 52.8546 70.0223 53.0366 69.7457 53.2503C69.4339 53.4896 69.1423 53.7496 68.8735 54.0281C68.5906 54.3196 68.3242 54.6239 68.0754 54.9397C67.8282 55.2542 67.6022 55.5729 67.3974 55.8959C67.1926 56.2189 67.0184 56.5133 66.8748 56.7789L66.6912 57.1359C66.6111 57.2889 66.5252 57.4621 66.4334 57.6554C66.3416 57.8488 66.2427 58.0464 66.1368 58.2483C66.0332 58.4608 65.9378 58.6531 65.8507 58.8253L65.6177 59.3098C65.5494 59.4521 65.5011 59.5499 65.4729 59.603C65.4446 59.6561 65.3858 59.7868 65.2963 59.9951C65.2139 60.1863 65.1186 60.4116 65.0103 60.6708L64.6572 61.4836L64.3217 62.2901L64.0463 62.9595C63.9686 63.1507 63.9156 63.2782 63.8944 63.3515C63.8249 63.5449 63.7399 63.7334 63.6402 63.9157C63.5496 64.0835 63.4369 64.2408 63.3047 64.3843C63.1839 64.5134 63.0379 64.6215 62.8739 64.703C62.7072 64.785 62.5199 64.8267 62.3301 64.8241C62.1016 64.8329 61.8762 64.7748 61.6874 64.6584C61.5927 64.5775 61.5204 64.4777 61.4762 64.3669C61.4321 64.2562 61.4173 64.1377 61.4331 64.0209C61.4336 63.8619 61.4549 63.7036 61.4967 63.5491C61.5403 63.387 61.5945 63.2273 61.6591 63.071C61.7227 62.9116 61.7898 62.7523 61.8604 62.6088C61.931 62.4654 61.9911 62.3156 62.0476 62.1753C62.436 61.4061 62.8315 60.6358 63.2341 59.8644C63.6366 59.093 64.0227 58.328 64.3923 57.5694C64.47 57.41 64.5406 57.2506 64.6148 57.1008L64.5477 57.1614C64.1031 57.5476 63.6313 57.9075 63.1352 58.2388C62.7061 58.5307 62.2432 58.7798 61.7545 58.9814C61.3374 59.1578 60.8837 59.2524 60.4232 59.2588C60.1698 59.2659 59.9178 59.2224 59.6852 59.1313C59.4981 59.054 59.3354 58.9356 59.212 58.787C59.0882 58.6316 59.0017 58.4547 58.9577 58.2675C58.9577 58.2005 58.9295 58.1272 58.9189 58.0571C58.7918 58.1463 58.6646 58.2324 58.5375 58.3153C58.1244 58.5822 57.6833 58.8117 57.2204 59.0006C56.856 59.1588 56.4591 59.2467 56.055 59.2588C55.8979 59.2628 55.7415 59.2365 55.5966 59.1815C55.4516 59.1266 55.3214 59.0442 55.2146 58.94C54.966 58.6341 54.8515 58.2561 54.8933 57.8786C54.9019 57.463 54.9599 57.0494 55.0663 56.645C54.8611 56.9671 54.6248 57.2721 54.36 57.5566C54.0748 57.8679 53.7527 58.15 53.3995 58.3981C53.0321 58.6549 52.6253 58.8622 52.1919 59.0133C51.7276 59.1736 51.234 59.2536 50.737 59.2492C50.5057 59.2502 50.2753 59.2234 50.0519 59.1695C49.839 59.1181 49.6421 59.0232 49.4763 58.8922C49.3 58.7472 49.1634 58.5671 49.0773 58.3663C48.9677 58.1026 48.9161 57.8222 48.9254 57.5407C48.9254 57.5407 48.9254 57.4164 48.9678 57.1901C49.0305 56.8275 49.1226 56.4695 49.2433 56.1191C49.3986 55.6303 49.6341 54.9928 49.9495 54.2066C50.265 53.4203 50.7217 52.479 51.3196 51.3825C51.43 51.1328 51.6101 50.9132 51.8423 50.745C52.0285 50.6211 52.2536 50.5541 52.4849 50.5537C52.5913 50.5547 52.697 50.5686 52.7992 50.5951C52.9076 50.6221 53.0103 50.6652 53.1029 50.7226C53.1953 50.78 53.2725 50.8551 53.3289 50.9426C53.3896 51.0396 53.419 51.15 53.4137 51.2613C53.4144 51.3356 53.4037 51.4096 53.3819 51.4813C53.3245 51.6593 53.2464 51.8313 53.1488 51.9945C53.0311 52.207 52.8922 52.4492 52.7321 52.7212C52.572 52.9932 52.4049 53.2875 52.2307 53.6041C52.0541 53.9186 51.8905 54.2448 51.7399 54.5827C51.5892 54.9202 51.4595 55.2649 51.3514 55.6154C51.2467 55.9479 51.185 56.2902 51.1678 56.6354C51.1668 56.7684 51.2046 56.8992 51.2773 57.0148C51.3123 57.0705 51.364 57.1162 51.4264 57.1466C51.4889 57.1771 51.5596 57.191 51.6304 57.1869C52.1142 57.1821 52.5835 57.0368 52.9687 56.7725C53.4117 56.479 53.8074 56.1314 54.1446 55.7398C54.5084 55.3221 54.8343 54.8786 55.1193 54.4138C55.4112 53.942 55.6537 53.5096 55.8467 53.1164C55.9856 52.8436 56.1035 52.5624 56.1998 52.2749C56.3012 51.9933 56.4191 51.7166 56.5529 51.4462C56.6578 51.2163 56.7994 51.0016 56.9732 50.8087C57.0439 50.7281 57.1341 50.6632 57.237 50.619C57.3398 50.5748 57.4525 50.5524 57.5664 50.5537C57.6849 50.5498 57.8026 50.5718 57.9096 50.6178C58.0166 50.6639 58.1097 50.7327 58.1809 50.8183C58.3345 51.0013 58.4142 51.2262 58.4069 51.4558C58.3933 51.6518 58.3444 51.8445 58.2621 52.0263C58.1656 52.2686 58.0478 52.5448 57.9089 52.8551C57.77 53.1653 57.61 53.4979 57.4287 53.8528C57.2568 54.2076 57.0968 54.5668 56.9484 54.9301C56.8101 55.2813 56.6923 55.6388 56.5953 56.0011C56.5029 56.3197 56.4543 56.6473 56.4505 56.9765C56.4427 57.0337 56.4497 57.0918 56.4709 57.1462C56.4921 57.2006 56.527 57.2498 56.5729 57.29C56.6187 57.3302 56.6743 57.3602 56.7352 57.3777C56.796 57.3952 56.8606 57.3997 56.9237 57.3909C57.2134 57.3751 57.4961 57.3045 57.7536 57.1837C58.1231 57.0238 58.4724 56.8282 58.7953 56.6004C58.8871 56.5366 58.9789 56.4729 59.0672 56.4059C59.1585 56.0517 59.2765 55.7034 59.4203 55.3636C59.6722 54.7644 59.9276 54.1683 60.1866 53.5755L60.8928 51.9498L64.1593 44.5134C64.2519 44.2552 64.4354 44.0314 64.6819 43.8759C64.8794 43.7589 65.1096 43.6948 65.3458 43.691C65.567 43.6908 65.7815 43.7594 65.9531 43.8854C66.0512 43.9648 66.1272 44.0638 66.175 44.1746C66.2228 44.2853 66.2412 44.4046 66.2286 44.523C66.226 44.6722 66.195 44.8199 66.1368 44.9596C66.0685 45.1289 65.9907 45.2948 65.9037 45.4569C65.7248 45.8181 65.5106 46.2601 65.261 46.7829C65.0115 47.3056 64.7454 47.8741 64.4629 48.4882C64.1781 49.1023 63.8873 49.7398 63.5907 50.4007L62.7185 52.3419C62.436 52.9794 62.17 53.5765 61.9204 54.1333L61.2778 55.6027C61.1886 55.8052 61.1108 56.0115 61.0447 56.2211C60.9736 56.4276 60.9356 56.6423 60.9317 56.8586C60.9264 56.9544 60.9483 57.0498 60.9953 57.1359C61.0214 57.1726 61.0584 57.2019 61.1021 57.2205C61.1458 57.2391 61.1945 57.2462 61.2424 57.2411C61.4398 57.2295 61.6323 57.1806 61.8074 57.0976C62.0622 56.9876 62.3077 56.8608 62.5419 56.7183C62.8056 56.5611 63.0787 56.3805 63.3612 56.1765C63.6437 55.9725 63.9262 55.7599 64.2087 55.5389C64.4888 55.3264 64.7572 55.1076 65.0138 54.8823C65.2704 54.6571 65.4988 54.4552 65.6989 54.2767C65.746 54.2337 65.8025 54.2001 65.8649 54.1779C65.9849 53.8591 66.0979 53.5404 66.1933 53.2216C66.2498 53.0835 66.3286 52.8869 66.4299 52.6319C66.5335 52.3771 66.6514 52.1271 66.783 51.8829C66.9008 51.6557 67.0478 51.4417 67.2208 51.2454C67.2824 51.1714 67.3617 51.1109 67.4528 51.0684C67.5439 51.0259 67.6445 51.0025 67.747 50.9999C67.8591 50.9907 67.9721 51.0018 68.0794 51.0324C68.1867 51.0631 68.2862 51.1127 68.372 51.1784C68.4413 51.2502 68.4941 51.3336 68.5274 51.4239C68.5608 51.5142 68.574 51.6095 68.5663 51.7044C68.5639 51.778 68.5568 51.8514 68.5451 51.9243C68.5451 52.0231 68.5133 52.1315 68.4921 52.2431C68.4709 52.3546 68.4462 52.4598 68.4215 52.5618C68.4044 52.6367 68.3808 52.7102 68.3509 52.7818C68.6169 52.5204 68.9041 52.2611 69.2125 52.004C69.5143 51.7515 69.8353 51.5183 70.173 51.306C70.4903 51.1055 70.83 50.9357 71.1864 50.7991C71.5135 50.6727 71.8653 50.6065 72.2211 50.6047C72.4602 50.605 72.698 50.6361 72.9274 50.6971C73.1514 50.7544 73.3628 50.8461 73.5524 50.9681C73.736 51.087 73.889 51.2403 74.0008 51.4175C74.1211 51.6121 74.1809 51.8323 74.1739 52.055C74.1654 52.4049 74.0751 52.7492 73.909 53.0655C73.7218 53.4408 73.4997 53.8012 73.2452 54.1428C72.9791 54.5041 72.6919 54.8558 72.3835 55.1979C72.0751 55.54 71.7856 55.8513 71.5149 56.1318L70.8333 56.8458C70.7063 56.9578 70.6086 57.0939 70.5473 57.2443C70.5458 57.3285 70.5814 57.4099 70.6462 57.4706C70.738 57.5362 70.8545 57.567 70.971 57.5566C71.1647 57.5342 71.3498 57.4708 71.5113 57.3718C71.8586 57.1794 72.1912 56.9665 72.5071 56.7343C72.9356 56.4304 73.4782 56.0235 74.135 55.5135C74.587 55.1628 75.1132 54.7453 75.71 54.2703L78.5632 30.4278C78.1736 30.6133 77.7657 30.7659 77.3449 30.8836C75.7249 31.3117 74.0675 31.6145 72.3906 31.7889V31.7889ZM56.5 26.1375C44.1689 26.1375 34.1754 27.3806 34.1754 28.917C34.1754 30.4533 44.1406 31.6901 56.5 31.6901C68.8594 31.6901 78.8245 30.447 78.8245 28.9106C78.8245 27.3742 68.817 26.1375 56.5 26.1375ZM65.4129 29.7298C65.4129 30.09 64.2264 30.3673 62.7609 30.3673C61.2954 30.3673 60.1089 30.074 60.1089 29.7298C60.1089 29.3855 61.2954 29.0923 62.7609 29.0923C64.2264 29.0923 65.4023 29.3632 65.4023 29.7234L65.4129 29.7298Z" fill="#DA4648"/>
<path d="M60.6315 29.4336C60.6186 29.4505 60.6112 29.4704 60.6104 29.491C60.6104 29.7237 61.5673 29.9117 62.7291 29.9117C63.8909 29.9117 64.8479 29.7237 64.8479 29.491L67.6375 19.291L78.7327 8.71805C78.9658 8.47899 78.4926 7.7363 77.7016 7.0988C76.9106 6.4613 76.056 6.24774 75.7912 6.48999L63.9933 17.7196L60.6315 29.4336Z" fill="#DA4648"/>
</svg>
