<svg width="74" height="84" viewBox="0 0 74 84" fill="none" xmlns="http://www.w3.org/2000/svg">
<path opacity="0.2" d="M62.397 69.8801L53.7045 10.6663C53.4369 8.84378 51.9191 7.61921 50.3011 7.92058L9.41544 15.5363C7.79754 15.8377 6.71042 17.5475 6.97796 19.3699L15.6705 78.5837C15.9381 80.4062 17.4559 81.6308 19.0739 81.3294L59.9596 73.7137C61.5775 73.4123 62.6646 71.7025 62.397 69.8801Z" fill="black"/>
<path d="M62.397 67.2551L53.7045 8.04125C53.4369 6.21878 51.9191 4.99421 50.3011 5.29558L9.41544 12.9113C7.79754 13.2127 6.71042 14.9225 6.97796 16.7449L15.6705 75.9587C15.9381 77.7812 17.4559 79.0058 19.0739 78.7044L59.9596 71.0887C61.5775 70.7873 62.6646 69.0775 62.397 67.2551Z" fill="#3F3F3F"/>
<path opacity="0.2" d="M16.1875 36.184L41.6972 57.75L48.5625 52.8528L19.7647 34.8018L16.1875 36.184Z" fill="black"/>
<path opacity="0.1" d="M50.9021 5.25009C50.7052 5.24189 50.5036 5.25856 50.3014 5.29624L9.41713 12.9098C7.79922 13.2111 6.71062 14.9223 6.97816 16.7447L7.12721 17.7752C7.4657 16.6478 8.29794 15.7432 9.41713 15.5348L50.3014 7.92124C51.9193 7.61987 53.4349 8.84168 53.7024 10.6642L62.2478 68.8499C62.3986 68.3475 62.4793 67.8172 62.3969 67.2555L53.7024 8.03916C53.4683 6.44449 52.2802 5.30751 50.9021 5.25009Z" fill="white"/>
<path d="M16.65 57.75H54.205L55.5363 68.25L16.65 57.75Z" fill="#138346"/>
<path opacity="0.2" d="M47.4062 13.125L60.481 16.4612L67.0625 63.2112L55.5363 70.875L47.4062 13.125Z" fill="black"/>
<path d="M47.4062 10.5L60.481 13.8362L67.0625 60.5862L55.5363 68.25L47.4062 10.5Z" fill="#32B968"/>
<path d="M37.0723 21L44.9011 23.2121L48.5624 50.2277L41.6972 55.125L37.0723 21Z" fill="#138346"/>
<path d="M16.1875 33.559L41.6972 55.125L48.5625 50.2278L19.7647 32.1768L16.1875 33.559Z" fill="#32B968"/>
<path opacity="0.1" d="M19.7646 32.1768L16.1875 33.561L18.3193 35.3606L19.7646 34.8018L46.6023 51.6233L48.5625 50.2288L19.7646 32.1768Z" fill="white"/>
<path opacity="0.2" d="M18.4999 53.2465L37.0724 23.625L44.9012 25.8371L22.2698 53.2861L18.4999 53.2465Z" fill="black"/>
<path d="M18.4999 50.6215L37.0724 21L44.9012 23.2121L22.2698 50.6611L18.4999 50.6215Z" fill="#32B968"/>
<path opacity="0.2" d="M47.4062 10.5L47.7902 13.2224L60.4818 16.4626L66.7238 60.8108L67.0625 60.5852L60.4818 13.8376L47.4062 10.5Z" fill="white"/>
<path opacity="0.2" d="M37.0723 21L18.5 50.6235L20.135 50.6389L37.0723 23.625L43.1426 25.3374L44.8995 23.2097L37.0723 21Z" fill="white"/>
</svg>
