<svg width="207" height="204" viewBox="0 0 207 204" fill="none" xmlns="http://www.w3.org/2000/svg">
<g clip-path="url(#clip0)">
<path d="M103.538 1.06122C46.9291 1.06122 1.03807 46.2803 1.03807 102.061C1.03807 157.842 46.9291 203.061 103.538 203.061C160.147 203.061 206.038 157.842 206.038 102.061C206.038 46.2803 160.147 1.06122 103.538 1.06122ZM65.1321 170.443H36.3171L36.3171 79.088H65.1321L65.1321 170.443ZM50.7311 66.6001C41.4951 66.6001 34.0181 59.2227 34.0181 50.1343C34.0201 41.0541 41.4951 33.6767 50.7311 33.6767C59.9421 33.6767 67.4291 41.0541 67.4291 50.1343C67.4291 59.2248 59.9401 66.6001 50.7311 66.6001ZM173.056 170.443H144.263V126.016C144.263 115.421 144.064 101.794 129.285 101.794C114.299 101.794 111.994 113.334 111.994 125.249L111.994 170.441H83.2041L83.2041 79.088H110.84V91.5717H111.228C115.077 84.3885 124.472 76.8169 138.492 76.8169C167.67 76.8169 173.056 95.7377 173.056 120.335V170.443Z" fill="white"/>
</g>
<defs>
<clipPath id="clip0">
<rect width="203" height="206" fill="white" transform="translate(206.538 0.561218) rotate(90)"/>
</clipPath>
</defs>
</svg>
