<svg width="31" height="26" viewBox="0 0 31 26" fill="none" xmlns="http://www.w3.org/2000/svg">
<path d="M23.0587 16.315C23.0417 16.2114 22.9424 16.0814 22.8358 15.9941C22.5307 15.7422 21.8598 15.6102 20.8378 15.598C20.1451 15.5919 19.312 15.6427 18.4353 15.7462C18.043 15.5573 17.6385 15.3502 17.3212 15.1003C16.4663 14.432 15.7543 13.5038 15.3087 12.482C15.3377 12.3866 15.3619 12.3033 15.3862 12.218C15.3862 12.218 15.8657 9.92672 15.7398 9.15078C15.7228 9.04516 15.7107 9.01469 15.6768 8.93141L15.6356 8.84203C15.5048 8.58812 15.2481 8.32 14.8461 8.33422L14.6087 8.32812H14.6039C14.1534 8.32812 13.7901 8.52109 13.6933 8.8075C13.4026 9.70938 13.703 11.0602 14.2479 12.807L14.1074 13.0914C13.7175 13.8917 13.2283 14.6961 12.7972 15.405L12.7415 15.4964C12.2862 16.2419 11.8744 16.8756 11.4991 17.4119L11.114 17.5825C11.0849 17.5947 10.4237 17.8892 10.2687 17.9664C8.95366 18.6266 8.08179 19.3741 7.93647 19.9672C7.89046 20.1581 7.92436 20.3998 8.15929 20.5116L8.53225 20.67C8.69452 20.737 8.86647 20.7716 9.04085 20.7716C9.97811 20.7716 11.0655 19.7925 12.5647 17.5987C14.2939 17.1275 16.2653 16.7334 17.9921 16.5181C19.3072 17.1377 20.925 17.5703 21.947 17.5703C22.1287 17.5703 22.2861 17.5561 22.412 17.5277C22.6082 17.483 22.7729 17.3895 22.8746 17.2636C23.0732 17.0137 23.1119 16.6684 23.0587 16.315ZM8.83741 20.1764C9.00694 19.7844 9.68507 19.0084 10.6853 18.3219C10.7483 18.2792 10.9033 18.1573 11.0437 18.0436C9.99749 19.4431 9.29757 19.9997 8.83741 20.1764ZM14.7613 8.73438C15.0616 8.73438 15.2336 9.37016 15.2481 9.96734C15.2626 10.5645 15.0955 10.983 14.8897 11.2937C14.7177 10.8347 14.6354 10.1116 14.6354 9.63828C14.6354 9.63828 14.6233 8.73438 14.7613 8.73438ZM12.9933 16.8878C13.2041 16.573 13.422 16.2398 13.6448 15.8884C14.1898 15.0252 14.5337 14.3508 14.788 13.7962C15.2966 14.5722 15.9311 15.2323 16.6746 15.7605C16.769 15.8255 16.8683 15.8925 16.9701 15.9595C15.4564 16.2094 14.1462 16.5161 12.9933 16.8878ZM22.5428 16.8167C22.4508 16.8634 22.1868 16.8919 22.0173 16.8919C21.4699 16.8919 20.7894 16.6827 19.8376 16.3394C20.2033 16.317 20.5399 16.3048 20.8402 16.3048C21.39 16.3048 21.5523 16.3028 22.0923 16.4186C22.63 16.5344 22.6373 16.768 22.5428 16.8167Z" fill="#F15123"/>
<path d="M25.1875 16.25C21.9773 16.25 19.375 18.4326 19.375 21.125C19.375 23.8174 21.9773 26 25.1875 26C28.3977 26 31 23.8174 31 21.125C31 18.4326 28.3977 16.25 25.1875 16.25ZM27.823 19.7007L27.7956 19.7364L25.8019 22.0598C25.6692 22.2357 25.4367 22.3438 25.1875 22.3438C24.9383 22.3438 24.7058 22.2357 24.5733 22.06L22.552 19.7009C22.4239 19.5128 22.4251 19.2798 22.5544 19.0927C22.684 18.9055 22.925 18.7893 23.1832 18.7893H24.2188V17.4688C24.2188 17.1328 24.5447 16.8594 24.9453 16.8594H25.4297C25.8303 16.8594 26.1562 17.1328 26.1562 17.4688V18.7891H27.1918C27.4498 18.7891 27.691 18.9053 27.8206 19.0925C27.9499 19.2796 27.9511 19.5128 27.823 19.7007Z" fill="#F15123"/>
<path d="M20.3444 25.5836L20.3317 25.5934H20.3444V25.5836Z" fill="#FF9A30"/>
<path d="M27.6101 15.6403V15.6305L27.5973 15.6403H27.6101Z" fill="#FF9A30"/>
<path d="M26.9 8.98686L17.3786 1.0012C16.9214 0.617703 16.313 0.40625 15.6664 0.40625H5.8125C4.47708 0.40625 3.39062 1.31747 3.39062 2.4375V23.5625C3.39062 24.6825 4.47708 25.5938 5.8125 25.5938H20.3316L19.3629 24.7812H5.8125C5.0111 24.7812 4.35938 24.2346 4.35938 23.5625V2.4375C4.35938 1.76536 5.0111 1.21875 5.8125 1.21875H15.6664C16.0546 1.21875 16.4193 1.3455 16.6937 1.57564L26.2151 9.5613C26.4854 9.78819 26.6406 10.1022 26.6406 10.423V14.818L27.6094 15.6305V10.423C27.6094 9.88061 27.3575 9.37056 26.9 8.98686Z" fill="#F15123"/>
<path d="M27.5973 15.6407L27.6094 15.6305L26.6406 14.818" fill="#F15123"/>
</svg>
